<svg width="239" height="212" viewBox="0 0 239 212" fill="none" xmlns="http://www.w3.org/2000/svg">
<ellipse cx="113.5" cy="112" rx="77.5" ry="77" fill="#EE1754"/>
<g filter="url(#filter0_d_3_4)">
<path d="M87.0682 109.455C87.0682 112.523 86.5142 115.174 85.4062 117.409C84.2983 119.644 82.7784 121.367 80.8466 122.58C78.9148 123.792 76.7083 124.398 74.2273 124.398C71.7462 124.398 69.5398 123.792 67.608 122.58C65.6761 121.367 64.1563 119.644 63.0483 117.409C61.9403 115.174 61.3864 112.523 61.3864 109.455C61.3864 106.386 61.9403 103.735 63.0483 101.5C64.1563 99.2652 65.6761 97.5417 67.608 96.3295C69.5398 95.1174 71.7462 94.5114 74.2273 94.5114C76.7083 94.5114 78.9148 95.1174 80.8466 96.3295C82.7784 97.5417 84.2983 99.2652 85.4062 101.5C86.5142 103.735 87.0682 106.386 87.0682 109.455ZM83.6591 109.455C83.6591 106.936 83.2377 104.81 82.3949 103.077C81.5616 101.344 80.4299 100.032 79 99.142C77.5795 98.2519 75.9886 97.8068 74.2273 97.8068C72.4659 97.8068 70.8703 98.2519 69.4403 99.142C68.0199 100.032 66.8883 101.344 66.0455 103.077C65.2121 104.81 64.7955 106.936 64.7955 109.455C64.7955 111.973 65.2121 114.099 66.0455 115.832C66.8883 117.565 68.0199 118.877 69.4403 119.767C70.8703 120.657 72.4659 121.102 74.2273 121.102C75.9886 121.102 77.5795 120.657 79 119.767C80.4299 118.877 81.5616 117.565 82.3949 115.832C83.2377 114.099 83.6591 111.973 83.6591 109.455ZM98.9574 124.511C97.5748 124.511 96.3201 124.251 95.1932 123.73C94.0663 123.2 93.1714 122.438 92.5085 121.443C91.8456 120.439 91.5142 119.227 91.5142 117.807C91.5142 116.557 91.7604 115.544 92.2528 114.767C92.7453 113.981 93.4034 113.366 94.2273 112.92C95.0511 112.475 95.9602 112.144 96.9545 111.926C97.9583 111.699 98.9669 111.519 99.9801 111.386C101.306 111.216 102.381 111.088 103.205 111.003C104.038 110.908 104.644 110.752 105.023 110.534C105.411 110.316 105.605 109.937 105.605 109.398V109.284C105.605 107.883 105.222 106.794 104.455 106.017C103.697 105.241 102.546 104.852 101.003 104.852C99.4025 104.852 98.1477 105.203 97.2386 105.903C96.3295 106.604 95.6903 107.352 95.321 108.148L92.1392 107.011C92.7074 105.686 93.465 104.653 94.4119 103.915C95.3684 103.167 96.41 102.646 97.5369 102.352C98.6733 102.049 99.7907 101.898 100.889 101.898C101.59 101.898 102.395 101.983 103.304 102.153C104.223 102.314 105.108 102.651 105.96 103.162C106.822 103.673 107.537 104.445 108.105 105.477C108.673 106.509 108.957 107.892 108.957 109.625V124H105.605V121.045H105.435C105.207 121.519 104.829 122.026 104.298 122.565C103.768 123.105 103.063 123.564 102.182 123.943C101.301 124.322 100.226 124.511 98.9574 124.511ZM99.4688 121.5C100.795 121.5 101.912 121.24 102.821 120.719C103.74 120.198 104.431 119.526 104.895 118.702C105.368 117.878 105.605 117.011 105.605 116.102V113.034C105.463 113.205 105.151 113.361 104.668 113.503C104.194 113.635 103.645 113.754 103.02 113.858C102.404 113.953 101.803 114.038 101.216 114.114C100.638 114.18 100.17 114.237 99.8097 114.284C98.9384 114.398 98.1241 114.582 97.3665 114.838C96.6184 115.084 96.0123 115.458 95.5483 115.96C95.0938 116.453 94.8665 117.125 94.8665 117.977C94.8665 119.142 95.2973 120.023 96.1591 120.619C97.0303 121.206 98.1335 121.5 99.4688 121.5ZM128.826 115.08V102.182H132.178V124H128.826V120.307H128.599C128.087 121.415 127.292 122.357 126.212 123.134C125.133 123.901 123.769 124.284 122.121 124.284C120.758 124.284 119.546 123.986 118.485 123.389C117.424 122.783 116.591 121.874 115.985 120.662C115.379 119.44 115.076 117.902 115.076 116.045V102.182H118.428V115.818C118.428 117.409 118.873 118.678 119.763 119.625C120.663 120.572 121.809 121.045 123.201 121.045C124.034 121.045 124.882 120.832 125.744 120.406C126.615 119.98 127.344 119.327 127.931 118.446C128.528 117.565 128.826 116.443 128.826 115.08ZM147.807 102.182V105.023H136.5V102.182H147.807ZM139.795 96.9545H143.148V117.75C143.148 118.697 143.285 119.407 143.56 119.881C143.844 120.345 144.204 120.657 144.639 120.818C145.084 120.97 145.553 121.045 146.045 121.045C146.415 121.045 146.718 121.027 146.955 120.989C147.191 120.941 147.381 120.903 147.523 120.875L148.205 123.886C147.977 123.972 147.66 124.057 147.253 124.142C146.846 124.237 146.33 124.284 145.705 124.284C144.758 124.284 143.83 124.08 142.92 123.673C142.021 123.266 141.273 122.646 140.676 121.812C140.089 120.979 139.795 119.928 139.795 118.659V96.9545ZM156.67 110.875V124H153.318V94.9091H156.67V105.591H156.955C157.466 104.464 158.233 103.569 159.256 102.906C160.288 102.234 161.661 101.898 163.375 101.898C164.862 101.898 166.164 102.196 167.281 102.793C168.399 103.38 169.265 104.284 169.881 105.506C170.506 106.718 170.818 108.261 170.818 110.136V124H167.466V110.364C167.466 108.631 167.016 107.291 166.116 106.344C165.226 105.387 163.991 104.909 162.409 104.909C161.311 104.909 160.326 105.141 159.455 105.605C158.593 106.069 157.911 106.746 157.409 107.636C156.917 108.527 156.67 109.606 156.67 110.875Z" fill="#F5F5F5"/>
<path d="M85.4062 117.409L75.5509 112.523L75.5509 112.523L85.4062 117.409ZM80.8466 122.58L86.693 131.897L86.693 131.897L80.8466 122.58ZM67.608 122.58L61.7616 131.897L61.7616 131.897L67.608 122.58ZM63.0483 117.409L72.9036 112.523L72.9036 112.523L63.0483 117.409ZM63.0483 101.5L53.1929 96.6141L63.0483 101.5ZM80.8466 96.3295L86.693 87.0118L86.693 87.0118L80.8466 96.3295ZM85.4062 101.5L75.5509 106.386L75.5509 106.386L85.4062 101.5ZM82.3949 103.077L72.4815 107.844L72.4921 107.866L72.5027 107.888L82.3949 103.077ZM79 99.142L73.1588 108.463L73.1728 108.472L73.1867 108.48L79 99.142ZM69.4403 99.142L63.627 89.8037L63.6131 89.8123L63.5992 89.8211L69.4403 99.142ZM66.0455 103.077L56.1533 98.2658L56.1426 98.2877L56.1321 98.3096L66.0455 103.077ZM66.0455 115.832L56.1321 120.599L56.1426 120.621L56.1533 120.643L66.0455 115.832ZM69.4403 119.767L63.5992 129.088L63.6131 129.097L63.627 129.105L69.4403 119.767ZM79 119.767L73.1867 110.429L73.1728 110.437L73.1588 110.446L79 119.767ZM82.3949 115.832L72.5027 111.021L72.4921 111.043L72.4815 111.065L82.3949 115.832ZM76.0682 109.455C76.0682 111.21 75.7526 112.116 75.5509 112.523L95.2616 122.295C97.2758 118.232 98.0682 113.835 98.0682 109.455H76.0682ZM75.5509 112.523C75.2572 113.116 75.0528 113.229 75.0002 113.262L86.693 131.897C90.504 129.506 93.3394 126.172 95.2616 122.295L75.5509 112.523ZM75.0002 113.262C74.9736 113.279 74.8289 113.398 74.2273 113.398V135.398C78.5878 135.398 82.856 134.305 86.693 131.897L75.0002 113.262ZM74.2273 113.398C73.6257 113.398 73.481 113.279 73.4544 113.262L61.7616 131.897C65.5986 134.305 69.8668 135.398 74.2273 135.398V113.398ZM73.4544 113.262C73.4017 113.229 73.1973 113.116 72.9036 112.523L53.1929 122.295C55.1152 126.172 57.9506 129.506 61.7616 131.897L73.4544 113.262ZM72.9036 112.523C72.7019 112.116 72.3864 111.21 72.3864 109.455H50.3864C50.3864 113.835 51.1788 118.232 53.1929 122.295L72.9036 112.523ZM72.3864 109.455C72.3864 107.699 72.7019 106.793 72.9036 106.386L53.1929 96.6141C51.1788 100.677 50.3864 105.074 50.3864 109.455H72.3864ZM72.9036 106.386C73.1973 105.794 73.4017 105.68 73.4544 105.647L61.7616 87.0118C57.9506 89.403 55.1152 92.7367 53.1929 96.6141L72.9036 106.386ZM73.4544 105.647C73.481 105.631 73.6257 105.511 74.2273 105.511V83.5114C69.8668 83.5114 65.5986 84.6043 61.7616 87.0118L73.4544 105.647ZM74.2273 105.511C74.8289 105.511 74.9736 105.631 75.0002 105.647L86.693 87.0118C82.856 84.6043 78.5878 83.5114 74.2273 83.5114V105.511ZM75.0002 105.647C75.0528 105.68 75.2572 105.794 75.5509 106.386L95.2616 96.6141C93.3394 92.7367 90.504 89.403 86.693 87.0118L75.0002 105.647ZM75.5509 106.386C75.7526 106.793 76.0682 107.699 76.0682 109.455H98.0682C98.0682 105.074 97.2758 100.677 95.2616 96.6141L75.5509 106.386ZM94.6591 109.455C94.6591 105.761 94.0472 101.885 92.287 98.2658L72.5027 107.888C72.4282 107.734 72.6591 108.111 72.6591 109.455H94.6591ZM92.3083 98.3096C90.7013 94.9679 88.2571 91.9475 84.8133 89.8037L73.1867 108.48C72.9328 108.322 72.7311 108.14 72.5927 107.979C72.461 107.827 72.4389 107.755 72.4815 107.844L92.3083 98.3096ZM84.8412 89.8211C81.5792 87.7769 77.9449 86.8068 74.2273 86.8068V108.807C74.1723 108.807 74.0089 108.798 73.7779 108.734C73.5431 108.668 73.3286 108.569 73.1588 108.463L84.8412 89.8211ZM74.2273 86.8068C70.5095 86.8068 66.8833 87.7766 63.627 89.8037L75.2536 108.48C75.0957 108.579 74.8916 108.673 74.6649 108.736C74.4416 108.798 74.2825 108.807 74.2273 108.807V86.8068ZM63.5992 89.8211C60.1838 91.9614 57.7596 94.9628 56.1533 98.2658L75.9376 107.888C75.9888 107.782 75.9759 107.839 75.8547 107.979C75.7269 108.127 75.5332 108.305 75.2815 108.463L63.5992 89.8211ZM56.1321 98.3096C54.3976 101.917 53.7955 105.776 53.7955 109.455H75.7955C75.7955 108.095 76.0267 107.703 75.9588 107.844L56.1321 98.3096ZM53.7955 109.455C53.7955 113.133 54.3976 116.992 56.1321 120.599L75.9588 111.065C76.0267 111.206 75.7955 110.814 75.7955 109.455H53.7955ZM56.1533 120.643C57.7596 123.946 60.1838 126.948 63.5992 129.088L75.2815 110.446C75.5332 110.604 75.7269 110.782 75.8547 110.93C75.9759 111.07 75.9888 111.127 75.9376 111.021L56.1533 120.643ZM63.627 129.105C66.8833 131.133 70.5095 132.102 74.2273 132.102V110.102C74.2825 110.102 74.4416 110.111 74.6649 110.173C74.8916 110.236 75.0957 110.33 75.2536 110.429L63.627 129.105ZM74.2273 132.102C77.9449 132.102 81.5792 131.132 84.8412 129.088L73.1588 110.446C73.3286 110.34 73.5431 110.241 73.7779 110.175C74.0089 110.111 74.1723 110.102 74.2273 110.102V132.102ZM84.8133 129.105C88.2571 126.962 90.7013 123.941 92.3083 120.599L72.4815 111.065C72.4389 111.154 72.461 111.083 72.5927 110.93C72.7311 110.77 72.9328 110.587 73.1867 110.429L84.8133 129.105ZM92.287 120.643C94.0472 117.024 94.6591 113.148 94.6591 109.455H72.6591C72.6591 110.798 72.4282 111.175 72.5027 111.021L92.287 120.643ZM95.1932 123.73L90.5094 133.683L90.5438 133.699L90.5782 133.715L95.1932 123.73ZM92.5085 121.443L83.3294 127.505L83.3426 127.525L83.356 127.545L92.5085 121.443ZM92.2528 114.767L101.542 120.658L101.559 120.633L101.575 120.607L92.2528 114.767ZM96.9545 111.926L99.3083 122.671L99.346 122.663L99.3836 122.655L96.9545 111.926ZM99.9801 111.386L98.5774 100.476L98.5652 100.478L98.553 100.479L99.9801 111.386ZM103.205 111.003L104.336 121.944L104.392 121.939L104.447 121.932L103.205 111.003ZM105.023 110.534L99.641 100.941L99.5901 100.969L99.5395 100.998L105.023 110.534ZM104.455 106.017L96.5809 113.699L96.6048 113.723L96.6288 113.747L104.455 106.017ZM97.2386 105.903L103.954 114.616L103.954 114.616L97.2386 105.903ZM95.321 108.148L91.6213 118.507L101.072 121.882L105.298 112.78L95.321 108.148ZM92.1392 107.011L82.0286 102.678L77.4188 113.435L88.4395 117.371L92.1392 107.011ZM94.4119 103.915L101.177 112.588L101.183 112.584L101.189 112.579L94.4119 103.915ZM97.5369 102.352L100.31 112.997L100.341 112.989L100.371 112.981L97.5369 102.352ZM103.304 102.153L101.277 112.965L101.341 112.977L101.405 112.988L103.304 102.153ZM105.96 103.162L100.301 112.594L100.324 112.608L100.347 112.622L105.96 103.162ZM108.105 105.477L98.4686 110.782L98.4686 110.782L108.105 105.477ZM108.957 124V135H119.957V124H108.957ZM105.605 124H94.6051V135H105.605V124ZM105.605 121.045H116.605V110.045H105.605V121.045ZM105.435 121.045V110.045H98.5131L95.5179 116.285L105.435 121.045ZM104.298 122.565L112.145 130.274L112.145 130.274L104.298 122.565ZM102.182 123.943L97.8356 113.838L97.8356 113.838L102.182 123.943ZM102.821 120.719L97.3954 111.15L97.3741 111.162L97.3528 111.174L102.821 120.719ZM104.895 118.702L95.3577 113.221L95.3339 113.262L95.3105 113.304L104.895 118.702ZM105.605 113.034H116.605V82.6514L97.1547 105.992L105.605 113.034ZM104.668 113.503L107.634 124.095L107.703 124.076L107.771 124.056L104.668 113.503ZM103.02 113.858L104.693 124.73L104.76 124.72L104.828 124.708L103.02 113.858ZM101.216 114.114L102.47 125.042L102.547 125.033L102.624 125.023L101.216 114.114ZM99.8097 114.284L101.232 125.192L101.245 125.19L99.8097 114.284ZM97.3665 114.838L100.805 125.287L100.845 125.274L100.884 125.26L97.3665 114.838ZM95.5483 115.96L87.4713 108.493L87.4655 108.499L95.5483 115.96ZM96.1591 120.619L89.8978 129.663L89.9545 129.703L90.0117 129.741L96.1591 120.619ZM98.9574 113.511C98.9572 113.511 98.9807 113.511 99.0253 113.516C99.0702 113.52 99.1344 113.529 99.2148 113.546C99.3814 113.58 99.5867 113.643 99.8081 113.745L90.5782 133.715C93.3087 134.977 96.1635 135.511 98.9574 135.511V113.511ZM99.8769 113.777C100.144 113.903 100.472 114.099 100.81 114.387C101.15 114.677 101.437 115.006 101.661 115.341L83.356 127.545C85.178 130.278 87.6501 132.338 90.5094 133.683L99.8769 113.777ZM101.688 115.382C102.414 116.481 102.514 117.469 102.514 117.807H80.5142C80.5142 120.985 81.2774 124.397 83.3294 127.505L101.688 115.382ZM102.514 117.807C102.514 117.917 102.501 119.146 101.542 120.658L82.9632 108.876C81.0197 111.941 80.5142 115.197 80.5142 117.807H102.514ZM101.575 120.607C101.047 121.449 100.288 122.149 99.4556 122.598L88.9989 103.242C86.5186 104.582 84.4434 106.513 82.9312 108.927L101.575 120.607ZM99.4556 122.598C99.382 122.638 99.3257 122.661 99.2948 122.673C99.2645 122.684 99.2664 122.681 99.3083 122.671L94.6008 101.181C92.6899 101.599 90.8014 102.269 88.9989 103.242L99.4556 122.598ZM99.3836 122.655C100.059 122.502 100.733 122.382 101.407 122.293L98.553 100.479C97.2008 100.656 95.858 100.896 94.5255 101.198L99.3836 122.655ZM101.383 122.297C102.666 122.132 103.64 122.016 104.336 121.944L102.073 100.061C101.121 100.16 99.946 100.3 98.5774 100.476L101.383 122.297ZM104.447 121.932C105.652 121.795 108.111 121.447 110.506 120.07L99.5395 100.998C100.49 100.452 101.259 100.235 101.538 100.163C101.863 100.079 102.031 100.065 101.963 100.073L104.447 121.932ZM110.404 120.128C115.055 117.519 116.605 112.916 116.605 109.398H94.6051C94.6051 108.379 94.7869 106.793 95.6703 105.07C96.607 103.242 98.0392 101.839 99.641 100.941L110.404 120.128ZM116.605 109.398V109.284H94.6051V109.398H116.605ZM116.605 109.284C116.605 105.847 115.614 101.662 112.28 98.2867L96.6288 113.747C95.8067 112.915 95.2574 111.965 94.9421 111.07C94.6428 110.22 94.6051 109.57 94.6051 109.284H116.605ZM112.328 98.3355C108.756 94.6742 104.242 93.8523 101.003 93.8523V115.852C100.851 115.852 98.6378 115.807 96.5809 113.699L112.328 98.3355ZM101.003 93.8523C97.912 93.8523 93.9874 94.5209 90.5231 97.1913L103.954 114.616C103.148 115.237 102.372 115.556 101.82 115.71C101.552 115.785 101.342 115.82 101.207 115.836C101.139 115.844 101.088 115.848 101.054 115.85C101.021 115.852 101.003 115.852 101.003 115.852V93.8523ZM90.5231 97.1913C88.6318 98.6491 86.6509 100.7 85.3439 103.516L105.298 112.78C104.73 114.004 104.027 114.559 103.954 114.616L90.5231 97.1913ZM99.0207 97.7886L95.8389 96.6522L88.4395 117.371L91.6213 118.507L99.0207 97.7886ZM102.25 111.344C102.233 111.383 101.961 111.977 101.177 112.588L87.6466 95.2412C84.9686 97.33 83.1814 99.9884 82.0286 102.678L102.25 111.344ZM101.189 112.579C101.113 112.638 100.993 112.72 100.83 112.802C100.665 112.884 100.488 112.951 100.31 112.997L94.7639 91.7075C92.1187 92.3966 89.7248 93.6157 87.6349 95.2504L101.189 112.579ZM100.371 112.981C100.648 112.907 100.813 112.898 100.889 112.898V90.8977C98.7688 90.8977 96.6986 91.1914 94.7026 91.7237L100.371 112.981ZM100.889 112.898C100.799 112.898 100.785 112.893 100.86 112.901C100.934 112.908 101.07 112.926 101.277 112.965L105.331 91.3418C103.952 91.0832 102.446 90.8977 100.889 90.8977V112.898ZM101.405 112.988C100.909 112.901 100.529 112.731 100.301 112.594L111.62 93.7295C109.687 92.5701 107.536 91.7274 105.203 91.3185L101.405 112.988ZM100.347 112.622C99.2446 111.968 98.6788 111.164 98.4686 110.782L117.742 100.173C116.395 97.7264 114.399 95.3788 111.574 93.7021L100.347 112.622ZM98.4686 110.782C98.1272 110.161 98.0071 109.686 97.9694 109.502C97.9325 109.323 97.9574 109.341 97.9574 109.625H119.957C119.957 106.849 119.527 103.417 117.742 100.173L98.4686 110.782ZM97.9574 109.625V124H119.957V109.625H97.9574ZM108.957 113H105.605V135H108.957V113ZM116.605 124V121.045H94.6051V124H116.605ZM105.605 110.045H105.435V132.045H105.605V110.045ZM95.5179 116.285C95.7681 115.764 96.0158 115.4 96.1702 115.194C96.327 114.984 96.4357 114.873 96.4516 114.856L112.145 130.274C113.182 129.219 114.426 127.734 115.351 125.806L95.5179 116.285ZM96.4516 114.856C97.1497 114.146 97.7414 113.879 97.8356 113.838L106.528 134.048C108.384 133.25 110.386 132.064 112.145 130.274L96.4516 114.856ZM97.8356 113.838C98.6947 113.469 99.191 113.511 98.9574 113.511V135.511C101.262 135.511 103.908 135.175 106.528 134.048L97.8356 113.838ZM99.4688 132.5C102.212 132.5 105.329 131.959 108.289 130.263L97.3528 111.174C98.4947 110.52 99.3767 110.5 99.4688 110.5V132.5ZM108.247 130.288C110.696 128.899 112.923 126.864 114.479 124.1L95.3105 113.304C95.9392 112.187 96.7829 111.497 97.3954 111.15L108.247 130.288ZM114.432 124.183C115.819 121.77 116.605 119.024 116.605 116.102H94.6051C94.6051 114.999 94.9179 113.986 95.3577 113.221L114.432 124.183ZM116.605 116.102V113.034H94.6051V116.102H116.605ZM97.1547 105.992C98.4526 104.435 99.8385 103.694 100.345 103.44C100.964 103.131 101.428 102.99 101.564 102.95L107.771 124.056C108.39 123.874 109.252 123.584 110.184 123.118C111.002 122.708 112.616 121.804 114.056 120.076L97.1547 105.992ZM101.702 102.91C101.707 102.909 101.67 102.919 101.583 102.938C101.497 102.956 101.375 102.98 101.211 103.008L104.828 124.708C105.739 124.557 106.689 124.36 107.634 124.095L101.702 102.91ZM101.347 102.986C100.815 103.068 100.302 103.14 99.8082 103.204L102.624 125.023C103.304 124.935 103.993 124.838 104.693 124.73L101.347 102.986ZM99.9618 103.185C99.355 103.255 98.8194 103.32 98.3747 103.378L101.245 125.19C101.52 125.154 101.922 125.105 102.47 125.042L99.9618 103.185ZM98.3869 103.376C96.8725 103.574 95.3503 103.909 93.8489 104.416L100.884 125.26C100.898 125.256 101.004 125.221 101.232 125.192L98.3869 103.376ZM93.9277 104.389C91.6783 105.13 89.3849 106.423 87.4713 108.493L103.625 123.428C102.64 124.494 101.558 125.039 100.805 125.287L93.9277 104.389ZM87.4655 108.499C84.666 111.532 83.8665 115.139 83.8665 117.977H105.866C105.866 119.111 105.521 121.373 103.631 123.421L87.4655 108.499ZM83.8665 117.977C83.8665 122.282 85.7022 126.759 89.8978 129.663L102.42 111.575C103.426 112.271 104.402 113.311 105.07 114.677C105.717 115.999 105.866 117.196 105.866 117.977H83.8665ZM90.0117 129.741C93.135 131.846 96.535 132.5 99.4688 132.5V110.5C99.732 110.5 100.926 110.567 102.306 111.497L90.0117 129.741ZM128.826 102.182V91.1818H117.826V102.182H128.826ZM132.178 102.182H143.178V91.1818H132.178V102.182ZM132.178 124V135H143.178V124H132.178ZM128.826 124H117.826V135H128.826V124ZM128.826 120.307H139.826V109.307H128.826V120.307ZM128.599 120.307V109.307H121.561L118.611 115.697L128.599 120.307ZM126.212 123.134L132.584 132.101L132.61 132.082L132.636 132.063L126.212 123.134ZM118.485 123.389L113.028 132.94L113.06 132.958L113.092 132.977L118.485 123.389ZM115.985 120.662L106.131 125.551L106.139 125.566L106.146 125.581L115.985 120.662ZM115.076 102.182V91.1818H104.076V102.182H115.076ZM118.428 102.182H129.428V91.1818H118.428V102.182ZM119.763 119.625L111.749 127.159L111.768 127.18L111.789 127.201L119.763 119.625ZM125.744 120.406L120.91 110.525L120.889 110.535L120.868 110.546L125.744 120.406ZM127.931 118.446L118.824 112.277L118.801 112.31L118.779 112.344L127.931 118.446ZM139.826 115.08V102.182H117.826V115.08H139.826ZM128.826 113.182H132.178V91.1818H128.826V113.182ZM121.178 102.182V124H143.178V102.182H121.178ZM132.178 113H128.826V135H132.178V113ZM139.826 124V120.307H117.826V124H139.826ZM128.826 109.307H128.599V131.307H128.826V109.307ZM118.611 115.697C118.773 115.346 118.981 115.023 119.213 114.749C119.442 114.478 119.652 114.302 119.789 114.204L132.636 132.063C135.114 130.281 137.209 127.9 138.586 124.916L118.611 115.697ZM119.841 114.167C121.035 113.318 122.049 113.284 122.121 113.284V135.284C125.489 135.284 129.231 134.483 132.584 132.101L119.841 114.167ZM122.121 113.284C122.245 113.284 122.489 113.298 122.818 113.379C123.154 113.462 123.518 113.6 123.878 113.802L113.092 132.977C115.991 134.607 119.101 135.284 122.121 135.284V113.284ZM123.943 113.839C124.41 114.105 124.829 114.444 125.173 114.82C125.512 115.189 125.714 115.524 125.824 115.743L106.146 125.581C107.613 128.515 109.878 131.14 113.028 132.94L123.943 113.839ZM125.839 115.773C126.03 116.157 126.086 116.417 126.096 116.466C126.105 116.51 126.076 116.386 126.076 116.045H104.076C104.076 119.017 104.55 122.363 106.131 125.551L125.839 115.773ZM126.076 116.045V102.182H104.076V116.045H126.076ZM115.076 113.182H118.428V91.1818H115.076V113.182ZM107.428 102.182V115.818H129.428V102.182H107.428ZM107.428 115.818C107.428 119.548 108.532 123.737 111.749 127.159L127.778 112.091C128.421 112.775 128.875 113.56 129.142 114.322C129.397 115.05 129.428 115.595 129.428 115.818H107.428ZM111.789 127.201C114.913 130.49 119.015 132.045 123.201 132.045V110.045C123.77 110.045 124.585 110.147 125.499 110.524C126.427 110.908 127.184 111.465 127.738 112.049L111.789 127.201ZM123.201 132.045C125.968 132.045 128.475 131.327 130.62 130.267L120.868 110.546C121.289 110.338 122.101 110.045 123.201 110.045V132.045ZM130.577 130.288C133.355 128.929 135.518 126.896 137.084 124.548L118.779 112.344C119.17 111.758 119.875 111.031 120.91 110.525L130.577 130.288ZM137.038 124.615C139.174 121.462 139.826 118.026 139.826 115.08H117.826C117.826 114.861 117.881 113.668 118.824 112.277L137.038 124.615ZM147.807 102.182H158.807V91.1818H147.807V102.182ZM147.807 105.023V116.023H158.807V105.023H147.807ZM136.5 105.023H125.5V116.023H136.5V105.023ZM136.5 102.182V91.1818H125.5V102.182H136.5ZM139.795 96.9545V85.9545H128.795V96.9545H139.795ZM143.148 96.9545H154.148V85.9545H143.148V96.9545ZM143.56 119.881L134.044 125.4L134.11 125.513L134.178 125.624L143.56 119.881ZM144.639 120.818L140.826 131.136L140.96 131.185L141.094 131.231L144.639 120.818ZM146.955 120.989L148.692 131.85L148.903 131.817L149.112 131.775L146.955 120.989ZM147.523 120.875L158.251 118.446L155.883 107.985L145.365 110.089L147.523 120.875ZM148.205 123.886L152.067 134.186L161.052 130.817L158.933 121.457L148.205 123.886ZM147.253 124.142L144.999 113.375L144.88 113.4L144.761 113.428L147.253 124.142ZM142.92 123.673L138.385 133.695L138.404 133.703L138.424 133.712L142.92 123.673ZM140.676 121.812L131.684 128.148L131.708 128.182L131.732 128.216L140.676 121.812ZM136.807 102.182V105.023H158.807V102.182H136.807ZM147.807 94.0227H136.5V116.023H147.807V94.0227ZM147.5 105.023V102.182H125.5V105.023H147.5ZM136.5 113.182H147.807V91.1818H136.5V113.182ZM139.795 107.955H143.148V85.9545H139.795V107.955ZM132.148 96.9545V117.75H154.148V96.9545H132.148ZM132.148 117.75C132.148 119.4 132.323 122.433 134.044 125.4L153.075 114.362C153.717 115.469 153.957 116.418 154.051 116.905C154.149 117.411 154.148 117.724 154.148 117.75H132.148ZM134.178 125.624C135.522 127.818 137.691 129.977 140.826 131.136L148.452 110.5C150.717 111.337 152.166 112.871 152.941 114.137L134.178 125.624ZM141.094 131.231C142.734 131.79 144.405 132.045 146.045 132.045V110.045C146.701 110.045 147.434 110.15 148.184 110.405L141.094 131.231ZM146.045 132.045C146.722 132.045 147.661 132.015 148.692 131.85L145.217 110.127C145.524 110.078 145.751 110.06 145.864 110.053C145.926 110.049 145.972 110.047 146 110.046C146.029 110.045 146.044 110.045 146.045 110.045V132.045ZM149.112 131.775C149.349 131.728 149.538 131.69 149.68 131.661L145.365 110.089C145.223 110.117 145.034 110.155 144.797 110.202L149.112 131.775ZM136.794 123.304L137.476 126.315L158.933 121.457L158.251 118.446L136.794 123.304ZM144.342 113.587C144.651 113.471 144.87 113.41 144.942 113.391C145.026 113.368 145.052 113.364 144.999 113.375L149.506 134.909C150.134 134.777 151.076 134.558 152.067 134.186L144.342 113.587ZM144.761 113.428C145.147 113.338 145.426 113.306 145.555 113.295C145.691 113.282 145.747 113.284 145.705 113.284V135.284C146.799 135.284 148.226 135.209 149.744 134.856L144.761 113.428ZM145.705 113.284C146.387 113.284 146.987 113.442 147.417 113.634L138.424 133.712C140.672 134.719 143.128 135.284 145.705 135.284V113.284ZM147.456 113.652C148.387 114.073 149.136 114.732 149.62 115.409L131.732 128.216C133.41 130.559 135.655 132.459 138.385 133.695L147.456 113.652ZM149.668 115.477C150.677 116.909 150.795 118.22 150.795 118.659H128.795C128.795 121.636 129.501 125.05 131.684 128.148L149.668 115.477ZM150.795 118.659V96.9545H128.795V118.659H150.795ZM156.67 124V135H167.67V124H156.67ZM153.318 124H142.318V135H153.318V124ZM153.318 94.9091V83.9091H142.318V94.9091H153.318ZM156.67 94.9091H167.67V83.9091H156.67V94.9091ZM156.67 105.591H145.67V116.591H156.67V105.591ZM156.955 105.591V116.591H164.043L166.971 110.136L156.955 105.591ZM159.256 102.906L165.239 112.137L165.249 112.13L165.259 112.123L159.256 102.906ZM167.281 102.793L162.101 112.496L162.133 112.513L162.165 112.53L167.281 102.793ZM169.881 105.506L160.057 110.455L160.08 110.501L160.104 110.547L169.881 105.506ZM170.818 124V135H181.818V124H170.818ZM167.466 124H156.466V135H167.466V124ZM166.116 106.344L158.064 113.838L158.103 113.879L158.141 113.92L166.116 106.344ZM159.455 105.605L154.284 95.8963L154.261 95.9081L154.239 95.9199L159.455 105.605ZM157.409 107.636L147.827 102.234L147.805 102.273L147.784 102.312L157.409 107.636ZM145.67 110.875V124H167.67V110.875H145.67ZM156.67 113H153.318V135H156.67V113ZM164.318 124V94.9091H142.318V124H164.318ZM153.318 105.909H156.67V83.9091H153.318V105.909ZM145.67 94.9091V105.591H167.67V94.9091H145.67ZM156.67 116.591H156.955V94.5909H156.67V116.591ZM166.971 110.136C166.82 110.471 166.59 110.854 166.265 111.233C165.939 111.613 165.582 111.914 165.239 112.137L153.273 93.6756C150.457 95.5009 148.304 98.0344 146.938 101.045L166.971 110.136ZM165.259 112.123C163.934 112.987 162.989 112.898 163.375 112.898V90.8977C160.333 90.8977 156.642 91.4811 153.252 93.6892L165.259 112.123ZM163.375 112.898C163.383 112.898 163.25 112.899 163.01 112.844C162.764 112.787 162.446 112.681 162.101 112.496L172.462 93.089C169.494 91.5046 166.355 90.8977 163.375 90.8977V112.898ZM162.165 112.53C161.681 112.276 161.221 111.933 160.826 111.521C160.438 111.116 160.196 110.731 160.057 110.455L179.704 100.556C178.148 97.4674 175.717 94.7988 172.398 93.0549L162.165 112.53ZM160.104 110.547C159.886 110.124 159.817 109.828 159.803 109.755C159.789 109.688 159.818 109.798 159.818 110.136H181.818C181.818 107.131 181.33 103.708 179.658 100.464L160.104 110.547ZM159.818 110.136V124H181.818V110.136H159.818ZM170.818 113H167.466V135H170.818V113ZM178.466 124V110.364H156.466V124H178.466ZM178.466 110.364C178.466 106.757 177.499 102.355 174.091 98.7675L158.141 113.92C156.533 112.227 156.466 110.504 156.466 110.364H178.466ZM174.169 98.8496C170.768 95.1956 166.351 93.9091 162.409 93.9091V115.909C162.099 115.909 161.42 115.862 160.552 115.526C159.64 115.174 158.77 114.596 158.064 113.838L174.169 98.8496ZM162.409 93.9091C159.714 93.9091 156.92 94.4923 154.284 95.8963L164.626 115.314C163.732 115.79 162.907 115.909 162.409 115.909V93.9091ZM154.239 95.9199C151.463 97.4147 149.303 99.616 147.827 102.234L166.991 113.039C166.519 113.876 165.722 114.724 164.67 115.29L154.239 95.9199ZM147.784 102.312C146.193 105.188 145.67 108.197 145.67 110.875H167.67C167.67 111.015 167.641 111.866 167.034 112.961L147.784 102.312Z" fill="#EE1754"/>
</g>
<defs>
<filter id="filter0_d_3_4" x="57.3864" y="94.5114" width="117.432" height="38" filterUnits="userSpaceOnUse" color-interpolation-filters="sRGB">
<feFlood flood-opacity="0" result="BackgroundImageFix"/>
<feColorMatrix in="SourceAlpha" type="matrix" values="0 0 0 0 0 0 0 0 0 0 0 0 0 0 0 0 0 0 127 0" result="hardAlpha"/>
<feOffset dy="4"/>
<feGaussianBlur stdDeviation="2"/>
<feComposite in2="hardAlpha" operator="out"/>
<feColorMatrix type="matrix" values="0 0 0 0 0 0 0 0 0 0 0 0 0 0 0 0 0 0 0.25 0"/>
<feBlend mode="normal" in2="BackgroundImageFix" result="effect1_dropShadow_3_4"/>
<feBlend mode="normal" in="SourceGraphic" in2="effect1_dropShadow_3_4" result="shape"/>
</filter>
</defs>
</svg>
