<?xml version="1.0" standalone="no"?><svg xmlns="http://www.w3.org/2000/svg" viewBox="0 0 1440 320"><path fill="#f3f4f5" fill-opacity="1" d="M0,64L26.7,85.3C53.3,107,107,149,160,144C213.3,139,267,85,320,90.7C373.3,96,427,160,480,208C533.3,256,587,288,640,298.7C693.3,309,747,299,800,266.7C853.3,235,907,181,960,154.7C1013.3,128,1067,128,1120,154.7C1173.3,181,1227,235,1280,256C1333.3,277,1387,267,1413,261.3L1440,256L1440,0L1413.3,0C1386.7,0,1333,0,1280,0C1226.7,0,1173,0,1120,0C1066.7,0,1013,0,960,0C906.7,0,853,0,800,0C746.7,0,693,0,640,0C586.7,0,533,0,480,0C426.7,0,373,0,320,0C266.7,0,213,0,160,0C106.7,0,53,0,27,0L0,0Z"></path></svg>